# Blender 4.3.2
# www.blender.org
o carrot
v 0.002724 0.025402 0.342862
v 0.019888 0.016036 0.342862
v 0.025402 -0.002724 0.342862
v 0.016036 -0.019888 0.342862
v -0.002724 -0.025402 0.342862
v -0.019888 -0.016036 0.342862
v -0.025402 0.002724 0.342862
v -0.016036 0.019888 0.342862
v 0.002530 0.023594 0.026016
v 0.018473 0.014894 0.026016
v 0.023594 -0.002530 0.026016
v 0.014894 -0.018473 0.026016
v -0.002530 -0.023594 0.026016
v -0.018473 -0.014894 0.026016
v -0.023594 0.002530 0.026016
v -0.014894 0.018473 0.026016
v 0.077848 0.062768 0.312895
v 0.010663 0.099430 0.312895
v 0.099430 -0.010663 0.312895
v 0.062768 -0.077848 0.312895
v -0.010663 -0.099430 0.312895
v -0.077848 -0.062768 0.312895
v -0.099430 0.010663 0.312895
v -0.062768 0.077848 0.312895
vn -0.0000 -0.0000 1.0000
vn -0.0000 -0.0000 -1.0000
vn 0.4652 0.8525 -0.2385
vn -0.2738 0.9317 -0.2385
vn -0.9317 -0.2738 -0.2385
vn 0.2738 -0.9317 -0.2385
vn 0.9317 0.2738 -0.2385
vn -0.8525 0.4652 -0.2385
vn -0.4652 -0.8525 -0.2385
vn 0.8525 -0.4652 -0.2385
vn 0.1913 0.3506 0.9168
vn 0.3832 0.1126 0.9168
vn 0.3506 -0.1913 0.9168
vn 0.1126 -0.3832 0.9168
vn -0.1913 -0.3506 0.9168
vn -0.3832 -0.1126 0.9168
vn -0.3506 0.1913 0.9168
vn -0.1126 0.3832 0.9168
s 1
f 4//1 3//1 7//1
f 16//2 9//2 13//2
f 17//3 9//3 18//3
f 24//4 9//4 16//4
f 23//5 14//5 22//5
f 20//6 13//6 12//6
f 17//7 11//7 10//7
f 24//8 15//8 23//8
f 22//9 13//9 21//9
f 20//10 11//10 19//10
f 2//11 18//11 1//11
f 2//12 19//12 17//12
f 4//13 19//13 3//13
f 4//14 21//14 20//14
f 6//15 21//15 5//15
f 7//16 22//16 6//16
f 7//17 24//17 23//17
f 8//18 18//18 24//18
f 3//1 2//1 1//1
f 1//1 8//1 3//1
f 8//1 7//1 3//1
f 7//1 6//1 5//1
f 5//1 4//1 7//1
f 9//2 10//2 11//2
f 11//2 12//2 9//2
f 12//2 13//2 9//2
f 13//2 14//2 15//2
f 15//2 16//2 13//2
f 17//3 10//3 9//3
f 24//4 18//4 9//4
f 23//5 15//5 14//5
f 20//6 21//6 13//6
f 17//7 19//7 11//7
f 24//8 16//8 15//8
f 22//9 14//9 13//9
f 20//10 12//10 11//10
f 2//11 17//11 18//11
f 2//12 3//12 19//12
f 4//13 20//13 19//13
f 4//14 5//14 21//14
f 6//15 22//15 21//15
f 7//16 23//16 22//16
f 7//17 8//17 24//17
f 8//18 1//18 18//18
