# Blender 4.3.2
# www.blender.org
o carrot
v 0.009671 0.023647 0.391010
v 0.023559 0.009883 0.391010
v 0.023647 -0.009671 0.391010
v 0.009883 -0.023559 0.391010
v -0.009671 -0.023647 0.391010
v -0.023559 -0.009883 0.391010
v -0.023647 0.009671 0.391010
v -0.009883 0.023559 0.391010
v 0.008982 0.021963 0.074164
v 0.021882 0.009179 0.074164
v 0.021963 -0.008982 0.074164
v 0.009179 -0.021882 0.074164
v -0.008982 -0.021963 0.074164
v -0.021882 -0.009179 0.074164
v -0.021963 0.008982 0.074164
v -0.009179 0.021882 0.074164
v 0.092215 0.038683 0.361043
v 0.037853 0.092559 0.361043
v 0.092559 -0.037853 0.361043
v 0.038683 -0.092215 0.361043
v -0.037853 -0.092559 0.361043
v -0.092215 -0.038683 0.361043
v -0.092559 0.037853 0.361043
v -0.038683 0.092215 0.361043
vn -0.0000 -0.0000 1.0000
vn -0.0000 -0.0000 -1.0000
vn 0.6836 0.6898 -0.2385
vn -0.0044 0.9711 -0.2385
vn -0.9711 -0.0044 -0.2385
vn 0.0044 -0.9711 -0.2385
vn 0.9711 0.0044 -0.2385
vn -0.6898 0.6836 -0.2385
vn -0.6836 -0.6898 -0.2385
vn 0.6898 -0.6836 -0.2385
vn 0.2811 0.2837 0.9168
vn 0.2812 0.2837 0.9168
vn 0.3994 0.0018 0.9168
vn 0.2837 -0.2812 0.9168
vn 0.2837 -0.2811 0.9168
vn 0.0018 -0.3994 0.9168
vn -0.2811 -0.2837 0.9168
vn -0.2812 -0.2837 0.9168
vn -0.3994 -0.0018 0.9168
vn -0.2837 0.2811 0.9168
vn -0.0018 0.3994 0.9168
vn -0.2837 0.2812 0.9168
s 1
f 4//1 3//1 7//1
f 16//2 9//2 13//2
f 17//3 9//3 18//3
f 24//4 9//4 16//4
f 23//5 14//5 22//5
f 20//6 13//6 12//6
f 17//7 11//7 10//7
f 24//8 15//8 23//8
f 22//9 13//9 21//9
f 20//10 11//10 19//10
f 2//11 18//11 1//12
f 2//13 19//13 17//13
f 4//14 19//15 3//14
f 4//16 21//16 20//16
f 6//17 21//17 5//18
f 7//19 22//19 6//19
f 7//20 24//20 23//20
f 8//21 18//21 24//21
f 3//1 2//1 1//1
f 1//1 8//1 3//1
f 8//1 7//1 3//1
f 7//1 6//1 5//1
f 5//1 4//1 7//1
f 9//2 10//2 11//2
f 11//2 12//2 9//2
f 12//2 13//2 9//2
f 13//2 14//2 15//2
f 15//2 16//2 13//2
f 17//3 10//3 9//3
f 24//4 18//4 9//4
f 23//5 15//5 14//5
f 20//6 21//6 13//6
f 17//7 19//7 11//7
f 24//8 16//8 15//8
f 22//9 14//9 13//9
f 20//10 12//10 11//10
f 2//11 17//11 18//11
f 2//13 3//13 19//13
f 4//14 20//15 19//15
f 4//16 5//16 21//16
f 6//17 22//17 21//17
f 7//19 23//19 22//19
f 7//20 8//22 24//20
f 8//21 1//21 18//21
