# Blender 4.3.2
# www.blender.org
o carrot
v -0.025548 -0.181787 0.259619
v -0.018065 -0.166989 0.269980
v -0.000000 -0.160859 0.274273
v 0.018065 -0.166989 0.269980
v 0.025548 -0.181787 0.259619
v 0.018065 -0.196585 0.249257
v 0.000000 -0.202715 0.244965
v -0.018065 -0.196585 0.249257
v -0.023729 -0.000052 0.000074
v -0.016779 0.013693 0.009698
v -0.000000 0.019386 0.013684
v 0.016779 0.013693 0.009698
v 0.023729 -0.000052 0.000074
v 0.016779 -0.013796 -0.009550
v 0.000000 -0.019489 -0.013537
v -0.016779 -0.013796 -0.009550
v -0.070711 -0.106676 0.275629
v -0.100000 -0.164599 0.235071
v -0.000000 -0.082683 0.292429
v 0.070711 -0.106676 0.275629
v 0.100000 -0.164599 0.235071
v 0.070711 -0.222522 0.194513
v 0.000000 -0.246514 0.177714
v -0.070711 -0.222522 0.194513
vn -0.0000 -0.5736 0.8192
vn -0.0000 0.5736 -0.8192
vn -0.8972 0.4412 0.0178
vn -0.8972 -0.1676 -0.4086
vn 0.3716 -0.5981 -0.7100
vn 0.8972 0.4412 0.0178
vn -0.3716 0.8718 0.3192
vn -0.3716 -0.5981 -0.7100
vn 0.8972 -0.1676 -0.4086
vn 0.3716 0.8718 0.3192
vn -0.3690 -0.4006 0.8386
vn -0.1528 -0.2236 0.9626
vn 0.1528 -0.2236 0.9626
vn 0.1529 -0.2236 0.9626
vn 0.3690 -0.4006 0.8386
vn 0.3690 -0.6510 0.6633
vn 0.1528 -0.8281 0.5393
vn -0.1528 -0.8281 0.5393
vn -0.3690 -0.6510 0.6633
vn -0.1529 -0.2236 0.9626
s 1
f 4//1 3//1 7//1
f 16//2 9//2 13//2
f 17//3 9//3 18//3
f 24//4 9//4 16//4
f 23//5 14//5 22//5
f 20//6 13//6 12//6
f 17//7 11//7 10//7
f 24//8 15//8 23//8
f 22//9 13//9 21//9
f 20//10 11//10 19//10
f 2//11 18//11 1//11
f 2//12 19//12 17//12
f 4//13 19//13 3//14
f 4//15 21//15 20//15
f 6//16 21//16 5//16
f 7//17 22//17 6//17
f 7//18 24//18 23//18
f 8//19 18//19 24//19
f 3//1 2//1 1//1
f 1//1 8//1 3//1
f 8//1 7//1 3//1
f 7//1 6//1 5//1
f 5//1 4//1 7//1
f 9//2 10//2 11//2
f 11//2 12//2 9//2
f 12//2 13//2 9//2
f 13//2 14//2 15//2
f 15//2 16//2 13//2
f 17//3 10//3 9//3
f 24//4 18//4 9//4
f 23//5 15//5 14//5
f 20//6 21//6 13//6
f 17//7 19//7 11//7
f 24//8 16//8 15//8
f 22//9 14//9 13//9
f 20//10 12//10 11//10
f 2//11 17//11 18//11
f 2//12 3//20 19//12
f 4//13 20//13 19//13
f 4//15 5//15 21//15
f 6//16 22//16 21//16
f 7//17 23//17 22//17
f 7//18 8//18 24//18
f 8//19 1//19 18//19
