# Blender 4.3.2
# www.blender.org
o carrot
v -0.024879 -0.177029 0.312951
v -0.013485 -0.164012 0.322065
v 0.005809 -0.161407 0.323889
v 0.021699 -0.170741 0.317353
v 0.024879 -0.186545 0.306287
v 0.013485 -0.199562 0.297173
v -0.005809 -0.202167 0.295349
v -0.021699 -0.192833 0.301884
v -0.023108 0.004368 0.053168
v -0.012525 0.016458 0.061634
v 0.005395 0.018877 0.063328
v 0.020155 0.010208 0.057258
v 0.023108 -0.004471 0.046979
v 0.012525 -0.016561 0.038514
v -0.005395 -0.018980 0.036820
v -0.020155 -0.010311 0.042890
v -0.052782 -0.095023 0.333789
v -0.097381 -0.145974 0.298112
v 0.022737 -0.084829 0.340927
v 0.084936 -0.121362 0.315346
v 0.097381 -0.183223 0.272030
v 0.052782 -0.234174 0.236354
v -0.022737 -0.244368 0.229216
v -0.084936 -0.207835 0.254797
vn -0.0000 -0.5736 0.8192
vn -0.0000 0.5736 -0.8192
vn -0.7892 0.6004 0.1292
vn -0.9582 0.0075 -0.2860
vn 0.1579 -0.6481 -0.7450
vn 0.9582 0.2662 -0.1048
vn -0.1579 0.9217 0.3542
vn -0.5659 -0.5097 -0.6481
vn 0.7892 -0.3267 -0.5200
vn 0.5659 0.7833 0.2573
vn -0.3246 -0.3352 0.8845
vn -0.0649 -0.2030 0.9770
vn 0.2327 -0.2600 0.9372
vn 0.3941 -0.4726 0.7882
vn 0.3246 -0.7165 0.6175
vn 0.0649 -0.8487 0.5249
vn -0.2327 -0.7917 0.5648
vn -0.3941 -0.5790 0.7137
s 1
f 4//1 3//1 7//1
f 16//2 9//2 13//2
f 17//3 9//3 18//3
f 24//4 9//4 16//4
f 23//5 14//5 22//5
f 20//6 13//6 12//6
f 17//7 11//7 10//7
f 24//8 15//8 23//8
f 22//9 13//9 21//9
f 20//10 11//10 19//10
f 2//11 18//11 1//11
f 2//12 19//12 17//12
f 4//13 19//13 3//13
f 4//14 21//14 20//14
f 6//15 21//15 5//15
f 7//16 22//16 6//16
f 7//17 24//17 23//17
f 8//18 18//18 24//18
f 3//1 2//1 1//1
f 1//1 8//1 3//1
f 8//1 7//1 3//1
f 7//1 6//1 5//1
f 5//1 4//1 7//1
f 9//2 10//2 11//2
f 11//2 12//2 9//2
f 12//2 13//2 9//2
f 13//2 14//2 15//2
f 15//2 16//2 13//2
f 17//3 10//3 9//3
f 24//4 18//4 9//4
f 23//5 15//5 14//5
f 20//6 21//6 13//6
f 17//7 19//7 11//7
f 24//8 16//8 15//8
f 22//9 14//9 13//9
f 20//10 12//10 11//10
f 2//11 17//11 18//11
f 2//12 3//12 19//12
f 4//13 20//13 19//13
f 4//14 5//14 21//14
f 6//15 22//15 21//15
f 7//16 23//16 22//16
f 7//17 8//17 24//17
f 8//18 1//18 18//18
