# Blender 4.3.2
# www.blender.org
o carrot
v -0.021426 -0.170388 0.360193
v -0.005311 -0.161317 0.366545
v 0.013915 -0.164236 0.364501
v 0.024990 -0.177437 0.355258
v 0.021426 -0.193186 0.344230
v 0.005311 -0.202257 0.337878
v -0.013915 -0.199338 0.339922
v -0.024990 -0.186137 0.349165
v -0.019900 0.010535 0.100079
v -0.004933 0.018961 0.105979
v 0.012924 0.016250 0.104081
v 0.023211 0.003989 0.095496
v 0.019900 -0.010639 0.085253
v 0.004933 -0.019065 0.079353
v -0.012924 -0.016353 0.081252
v -0.023211 -0.004092 0.089837
v -0.020788 -0.084473 0.383769
v -0.083865 -0.119982 0.358905
v 0.054467 -0.095900 0.375767
v 0.097816 -0.147570 0.339587
v 0.083865 -0.209215 0.296423
v 0.020788 -0.244725 0.271559
v -0.054467 -0.233297 0.279561
v -0.097816 -0.181627 0.315740
vn -0.0000 -0.5736 0.8192
vn -0.0000 0.5736 -0.8192
vn -0.5500 0.7924 0.2637
vn -0.9549 0.2818 -0.0939
vn -0.1770 -0.6454 -0.7431
vn 0.9549 -0.0082 -0.2969
vn 0.1770 0.9190 0.3523
vn -0.8004 -0.3137 -0.5109
vn 0.5500 -0.5188 -0.6545
vn 0.8004 0.5874 0.1201
vn -0.2262 -0.2562 0.9398
vn 0.0728 -0.2041 0.9762
vn 0.0728 -0.2042 0.9762
vn 0.3292 -0.3405 0.8807
vn 0.3927 -0.5855 0.7092
vn 0.2262 -0.7955 0.5622
vn -0.0728 -0.8475 0.5257
vn -0.3292 -0.7111 0.6212
vn -0.3927 -0.4662 0.7927
s 1
f 4//1 3//1 7//1
f 16//2 9//2 13//2
f 17//3 9//3 18//3
f 24//4 9//4 16//4
f 23//5 14//5 22//5
f 20//6 13//6 12//6
f 17//7 11//7 10//7
f 24//8 15//8 23//8
f 22//9 13//9 21//9
f 20//10 11//10 19//10
f 2//11 18//11 1//11
f 2//12 19//12 17//13
f 4//14 19//14 3//14
f 4//15 21//15 20//15
f 6//16 21//16 5//16
f 7//17 22//17 6//17
f 7//18 24//18 23//18
f 8//19 18//19 24//19
f 3//1 2//1 1//1
f 1//1 8//1 3//1
f 8//1 7//1 3//1
f 7//1 6//1 5//1
f 5//1 4//1 7//1
f 9//2 10//2 11//2
f 11//2 12//2 9//2
f 12//2 13//2 9//2
f 13//2 14//2 15//2
f 15//2 16//2 13//2
f 17//3 10//3 9//3
f 24//4 18//4 9//4
f 23//5 15//5 14//5
f 20//6 21//6 13//6
f 17//7 19//7 11//7
f 24//8 16//8 15//8
f 22//9 14//9 13//9
f 20//10 12//10 11//10
f 2//11 17//11 18//11
f 2//12 3//12 19//12
f 4//14 20//14 19//14
f 4//15 5//15 21//15
f 6//16 22//16 21//16
f 7//17 23//17 22//17
f 7//18 8//18 24//18
f 8//19 1//19 18//19
