# Blender 4.3.2
# www.blender.org
o carrot
v -0.001196 -0.160882 0.284656
v 0.017199 -0.166312 0.280854
v 0.025520 -0.180807 0.270705
v 0.018891 -0.195876 0.260154
v 0.001196 -0.202692 0.255381
v -0.017199 -0.197262 0.259183
v -0.025520 -0.182767 0.269333
v -0.018891 -0.167698 0.279884
v -0.001111 0.019365 0.024069
v 0.015975 0.014321 0.020538
v 0.023703 0.000858 0.011111
v 0.017546 -0.013138 0.001311
v 0.001111 -0.019468 -0.003122
v -0.015975 -0.014425 0.000410
v -0.023703 -0.000962 0.009836
v -0.017546 0.013034 0.019637
v 0.067323 -0.104027 0.287884
v -0.004682 -0.082773 0.302766
v 0.099890 -0.160763 0.248157
v 0.073944 -0.219746 0.206857
v 0.004682 -0.246424 0.188177
v -0.067323 -0.225170 0.203059
v -0.099890 -0.168434 0.242786
v -0.073944 -0.109451 0.284086
vn -0.0000 -0.5736 0.8192
vn -0.0000 0.5736 -0.8192
vn 0.3292 0.8852 0.3286
vn -0.4132 0.8567 0.3087
vn -0.8788 -0.2017 -0.4324
vn 0.4132 -0.5831 -0.6995
vn 0.8788 0.4753 0.0416
vn -0.9136 0.4065 -0.0066
vn -0.3292 -0.6116 -0.7194
vn 0.9136 -0.1329 -0.3842
vn 0.1354 -0.2180 0.9665
vn 0.3614 -0.3866 0.8485
vn 0.3758 -0.6368 0.6733
vn 0.1700 -0.8219 0.5437
vn -0.1354 -0.8336 0.5355
vn -0.3614 -0.6651 0.6535
vn -0.3758 -0.4149 0.8286
vn -0.1700 -0.2298 0.9583
s 1
f 4//1 3//1 7//1
f 16//2 9//2 13//2
f 17//3 9//3 18//3
f 24//4 9//4 16//4
f 23//5 14//5 22//5
f 20//6 13//6 12//6
f 17//7 11//7 10//7
f 24//8 15//8 23//8
f 22//9 13//9 21//9
f 20//10 11//10 19//10
f 2//11 18//11 1//11
f 2//12 19//12 17//12
f 4//13 19//13 3//13
f 4//14 21//14 20//14
f 6//15 21//15 5//15
f 7//16 22//16 6//16
f 7//17 24//17 23//17
f 8//18 18//18 24//18
f 3//1 2//1 1//1
f 1//1 8//1 3//1
f 8//1 7//1 3//1
f 7//1 6//1 5//1
f 5//1 4//1 7//1
f 9//2 10//2 11//2
f 11//2 12//2 9//2
f 12//2 13//2 9//2
f 13//2 14//2 15//2
f 15//2 16//2 13//2
f 17//3 10//3 9//3
f 24//4 18//4 9//4
f 23//5 15//5 14//5
f 20//6 21//6 13//6
f 17//7 19//7 11//7
f 24//8 16//8 15//8
f 22//9 14//9 13//9
f 20//10 12//10 11//10
f 2//11 17//11 18//11
f 2//12 3//12 19//12
f 4//13 20//13 19//13
f 4//14 5//14 21//14
f 6//15 22//15 21//15
f 7//16 23//16 22//16
f 7//17 8//17 24//17
f 8//18 1//18 18//18
