# Blender 4.3.2
# www.blender.org
o carrot
v -0.004371 -0.161168 0.309256
v 0.014708 -0.164676 0.306800
v 0.025171 -0.178207 0.297326
v 0.020889 -0.193835 0.286383
v 0.004371 -0.202406 0.280381
v -0.014708 -0.198899 0.282837
v -0.025171 -0.185367 0.292312
v -0.020889 -0.169739 0.303255
v -0.004060 0.019099 0.048683
v 0.013661 0.015842 0.046402
v 0.023379 0.003274 0.037602
v 0.019402 -0.011242 0.027438
v 0.004060 -0.019203 0.021864
v -0.013661 -0.015945 0.024145
v -0.023379 -0.003377 0.032945
v -0.019402 0.011139 0.043109
v 0.057571 -0.097620 0.317170
v -0.017109 -0.083891 0.326783
v 0.098526 -0.150584 0.280084
v 0.081766 -0.211758 0.237250
v 0.017109 -0.245306 0.213759
v -0.057571 -0.231577 0.223372
v -0.098526 -0.178613 0.260458
v -0.081766 -0.117439 0.303293
vn -0.0000 -0.5736 0.8192
vn -0.0000 0.5736 -0.8192
vn 0.2127 0.9130 0.3481
vn -0.5197 0.8089 0.2752
vn -0.8204 -0.2889 -0.4935
vn 0.5197 -0.5352 -0.6660
vn 0.8204 0.5625 0.1027
vn -0.9476 0.3110 -0.0734
vn -0.2127 -0.6394 -0.7389
vn 0.9476 -0.0374 -0.3174
vn 0.0875 -0.2066 0.9745
vn 0.3374 -0.3508 0.8736
vn 0.3897 -0.5975 0.7008
vn 0.2137 -0.8022 0.5574
vn -0.0875 -0.8451 0.5274
vn -0.3374 -0.7009 0.6284
vn -0.3897 -0.4542 0.8011
vn -0.2137 -0.2494 0.9445
vn -0.0875 -0.8451 0.5275
s 1
f 4//1 3//1 7//1
f 16//2 9//2 13//2
f 17//3 9//3 18//3
f 24//4 9//4 16//4
f 23//5 14//5 22//5
f 20//6 13//6 12//6
f 17//7 11//7 10//7
f 24//8 15//8 23//8
f 22//9 13//9 21//9
f 20//10 11//10 19//10
f 2//11 18//11 1//11
f 2//12 19//12 17//12
f 4//13 19//13 3//13
f 4//14 21//14 20//14
f 6//15 21//15 5//15
f 7//16 22//16 6//16
f 7//17 24//17 23//17
f 8//18 18//18 24//18
f 3//1 2//1 1//1
f 1//1 8//1 3//1
f 8//1 7//1 3//1
f 7//1 6//1 5//1
f 5//1 4//1 7//1
f 9//2 10//2 11//2
f 11//2 12//2 9//2
f 12//2 13//2 9//2
f 13//2 14//2 15//2
f 15//2 16//2 13//2
f 17//3 10//3 9//3
f 24//4 18//4 9//4
f 23//5 15//5 14//5
f 20//6 21//6 13//6
f 17//7 19//7 11//7
f 24//8 16//8 15//8
f 22//9 14//9 13//9
f 20//10 12//10 11//10
f 2//11 17//11 18//11
f 2//12 3//12 19//12
f 4//13 20//13 19//13
f 4//14 5//14 21//14
f 6//15 22//19 21//15
f 7//16 23//16 22//16
f 7//17 8//17 24//17
f 8//18 1//18 18//18
