# Blender 4.3.2
# www.blender.org
o carrot
v -0.025402 -0.179555 0.287107
v -0.016036 -0.165495 0.296952
v 0.002724 -0.160979 0.300115
v 0.019888 -0.168651 0.294742
v 0.025402 -0.184019 0.283982
v 0.016036 -0.198079 0.274137
v -0.002724 -0.202595 0.270974
v -0.019888 -0.194923 0.276347
v -0.023594 0.002021 0.027451
v -0.014894 0.015080 0.036595
v 0.002530 0.019275 0.039532
v 0.018473 0.012149 0.034543
v 0.023594 -0.002124 0.024548
v 0.014894 -0.015183 0.015404
v -0.002530 -0.019378 0.012467
v -0.018473 -0.012252 0.017457
v -0.062768 -0.100829 0.305649
v -0.099430 -0.155864 0.267113
v 0.010663 -0.083150 0.318028
v 0.077848 -0.113182 0.296999
v 0.099430 -0.173333 0.254881
v 0.062768 -0.228368 0.216345
v -0.010663 -0.246047 0.203967
v -0.077848 -0.216015 0.224995
vn -0.0000 -0.5736 0.8192
vn -0.0000 0.5736 -0.8192
vn -0.8525 0.5179 0.0714
vn -0.9317 -0.0875 -0.3525
vn 0.2738 -0.6264 -0.7298
vn 0.9317 0.3611 -0.0383
vn -0.2738 0.9000 0.3390
vn -0.4652 -0.5615 -0.6844
vn 0.8525 -0.2442 -0.4622
vn 0.4652 0.8351 0.2936
vn -0.3506 -0.3691 0.8607
vn -0.1126 -0.2119 0.9708
vn 0.1913 -0.2386 0.9521
vn 0.3832 -0.4336 0.8156
vn 0.3506 -0.6826 0.6412
vn 0.1126 -0.8397 0.5312
vn -0.1913 -0.8130 0.5499
vn -0.3832 -0.6181 0.6864
s 1
f 4//1 3//1 7//1
f 16//2 9//2 13//2
f 17//3 9//3 18//3
f 24//4 9//4 16//4
f 23//5 14//5 22//5
f 20//6 13//6 12//6
f 17//7 11//7 10//7
f 24//8 15//8 23//8
f 22//9 13//9 21//9
f 20//10 11//10 19//10
f 2//11 18//11 1//11
f 2//12 19//12 17//12
f 4//13 19//13 3//13
f 4//14 21//14 20//14
f 6//15 21//15 5//15
f 7//16 22//16 6//16
f 7//17 24//17 23//17
f 8//18 18//18 24//18
f 3//1 2//1 1//1
f 1//1 8//1 3//1
f 8//1 7//1 3//1
f 7//1 6//1 5//1
f 5//1 4//1 7//1
f 9//2 10//2 11//2
f 11//2 12//2 9//2
f 12//2 13//2 9//2
f 13//2 14//2 15//2
f 15//2 16//2 13//2
f 17//3 10//3 9//3
f 24//4 18//4 9//4
f 23//5 15//5 14//5
f 20//6 21//6 13//6
f 17//7 19//7 11//7
f 24//8 16//8 15//8
f 22//9 14//9 13//9
f 20//10 12//10 11//10
f 2//11 17//11 18//11
f 2//12 3//12 19//12
f 4//13 20//13 19//13
f 4//14 5//14 21//14
f 6//15 22//15 21//15
f 7//16 23//16 22//16
f 7//17 8//17 24//17
f 8//18 1//18 18//18
