# Blender 4.3.2
# www.blender.org
o carrot
v -0.025538 -0.181203 0.267435
v -0.017553 -0.166582 0.277673
v 0.000714 -0.160867 0.281674
v 0.018562 -0.167408 0.277094
v 0.025538 -0.182371 0.266617
v 0.017553 -0.196993 0.256379
v -0.000714 -0.202707 0.252378
v -0.018562 -0.196166 0.256958
v -0.023720 0.000491 0.007861
v -0.016304 0.014071 0.017370
v 0.000663 0.019378 0.021086
v 0.017241 0.013304 0.016833
v 0.023720 -0.000594 0.007101
v 0.016304 -0.014175 -0.002408
v -0.000663 -0.019482 -0.006124
v -0.017241 -0.013407 -0.001870
v -0.068709 -0.105081 0.284154
v -0.099961 -0.162311 0.244081
v 0.002793 -0.082715 0.299814
v 0.072658 -0.108316 0.281888
v 0.099961 -0.166886 0.240877
v 0.068709 -0.224117 0.200804
v -0.002793 -0.246482 0.185143
v -0.072658 -0.220881 0.203069
vn -0.0000 -0.5736 0.8192
vn -0.0000 0.5736 -0.8192
vn -0.8865 0.4616 0.0321
vn -0.9072 -0.1470 -0.3941
vn 0.3464 -0.6063 -0.7158
vn 0.9072 0.4206 0.0033
vn -0.3464 0.8800 0.3250
vn -0.3965 -0.5893 -0.7039
vn 0.8865 -0.1880 -0.4228
vn 0.3965 0.8630 0.3131
vn -0.3646 -0.3922 0.8445
vn -0.1425 -0.2202 0.9650
vn 0.1631 -0.2272 0.9601
vn 0.3731 -0.4091 0.8327
vn 0.3646 -0.6594 0.6574
vn 0.1425 -0.8315 0.5370
vn -0.1631 -0.8245 0.5419
vn -0.3731 -0.6426 0.6693
vn -0.8865 0.4617 0.0321
s 1
f 4//1 3//1 7//1
f 16//2 9//2 13//2
f 17//3 9//3 18//3
f 24//4 9//4 16//4
f 23//5 14//5 22//5
f 20//6 13//6 12//6
f 17//7 11//7 10//7
f 24//8 15//8 23//8
f 22//9 13//9 21//9
f 20//10 11//10 19//10
f 2//11 18//11 1//11
f 2//12 19//12 17//12
f 4//13 19//13 3//13
f 4//14 21//14 20//14
f 6//15 21//15 5//15
f 7//16 22//16 6//16
f 7//17 24//17 23//17
f 8//18 18//18 24//18
f 3//1 2//1 1//1
f 1//1 8//1 3//1
f 8//1 7//1 3//1
f 7//1 6//1 5//1
f 5//1 4//1 7//1
f 9//2 10//2 11//2
f 11//2 12//2 9//2
f 12//2 13//2 9//2
f 13//2 14//2 15//2
f 15//2 16//2 13//2
f 17//3 10//19 9//3
f 24//4 18//4 9//4
f 23//5 15//5 14//5
f 20//6 21//6 13//6
f 17//7 19//7 11//7
f 24//8 16//8 15//8
f 22//9 14//9 13//9
f 20//10 12//10 11//10
f 2//11 17//11 18//11
f 2//12 3//12 19//12
f 4//13 20//13 19//13
f 4//14 5//14 21//14
f 6//15 22//15 21//15
f 7//16 23//16 22//16
f 7//17 8//17 24//17
f 8//18 1//18 18//18
