# Blender 4.3.2
# www.blender.org
o Aim
v 0.023278 -0.023278 -0.022868
v 0.023278 0.023278 -0.022868
v 0.023278 -0.023278 0.023687
v 0.023278 0.023278 0.023687
v -0.023278 -0.023278 -0.022868
v -0.023278 0.023278 -0.022868
v -0.023278 -0.023278 0.023687
v -0.023278 0.023278 0.023687
v 0.027749 -0.009250 -0.027340
v 0.027749 0.009250 -0.027340
v 0.027749 -0.027749 -0.008840
v 0.027749 -0.027749 0.009659
v 0.027749 -0.009250 0.028158
v 0.027749 0.009250 0.028158
v 0.009250 -0.027749 0.028158
v -0.009250 -0.027749 0.028158
v -0.027749 -0.009250 0.028158
v -0.027749 0.009250 0.028158
v -0.027749 -0.027749 -0.008840
v -0.027749 -0.027749 0.009659
v -0.027749 -0.009250 -0.027340
v -0.027749 0.009250 -0.027340
v 0.009250 -0.027749 -0.027340
v -0.009250 -0.027749 -0.027340
v 0.009250 0.027749 0.028158
v -0.009250 0.027749 0.028158
v -0.027749 0.027749 -0.008840
v -0.027749 0.027749 0.009659
v 0.027749 0.027749 -0.008840
v 0.027749 0.027749 0.009659
v 0.009250 0.027749 -0.027340
v -0.009250 0.027749 -0.027340
v 0.012156 0.012156 0.036878
v 0.012156 -0.012156 0.036878
v -0.012156 0.012156 0.036878
v -0.012156 -0.012156 0.036878
v 0.036469 0.012156 -0.011747
v 0.036469 -0.012156 -0.011747
v 0.036469 0.012156 0.012566
v 0.036469 -0.012156 0.012565
v 0.012156 0.036469 0.012566
v -0.012156 0.036469 0.012566
v 0.012156 0.036469 -0.011747
v -0.012156 0.036469 -0.011747
v -0.012156 -0.036469 0.012565
v 0.012156 -0.036469 0.012565
v -0.012156 -0.036469 -0.011747
v 0.012156 -0.036469 -0.011747
v -0.012156 0.012156 -0.036060
v -0.012156 -0.012156 -0.036060
v 0.012156 0.012156 -0.036060
v 0.012156 -0.012156 -0.036060
v -0.036469 0.012156 0.012566
v -0.036469 -0.012156 0.012565
v -0.036469 0.012156 -0.011747
v -0.036469 -0.012156 -0.011747
vn -0.7662 -0.4544 -0.4544
vn 0.4544 -0.4544 -0.7662
vn 0.4544 -0.7662 -0.4544
vn -0.4544 0.7662 -0.4544
vn 0.7662 -0.4544 0.4544
vn -0.4544 -0.4544 0.7662
vn 0.4544 -0.4544 0.7662
vn -0.0000 -0.4881 0.8728
vn 0.4544 0.4544 0.7662
vn 0.4881 -0.0000 0.8728
vn -0.0000 0.4881 0.8728
vn -0.0000 -0.0000 1.0000
vn -0.4544 0.4544 0.7662
vn -0.4881 -0.0000 0.8728
vn 0.7662 -0.4544 -0.4544
vn 0.8728 -0.4881 -0.0000
vn 0.7662 0.4544 -0.4544
vn 0.8728 -0.0000 -0.4881
vn 0.8728 0.4881 -0.0000
vn 1.0000 -0.0000 -0.0000
vn 0.7662 0.4544 0.4544
vn 0.8728 -0.0000 0.4881
vn -0.4544 0.7662 0.4544
vn -0.4881 0.8728 -0.0000
vn 0.4544 0.7662 0.4544
vn -0.0000 0.8728 0.4881
vn 0.4881 0.8728 -0.0000
vn -0.0000 1.0000 -0.0000
vn 0.4544 0.7662 -0.4544
vn -0.0000 0.8728 -0.4881
vn 0.4544 -0.7662 0.4544
vn 0.4881 -0.8728 -0.0000
vn -0.4544 -0.7662 0.4544
vn -0.0000 -0.8728 0.4881
vn -0.4881 -0.8728 -0.0000
vn -0.0000 -1.0000 -0.0000
vn -0.4544 -0.7662 -0.4544
vn -0.0000 -0.8728 -0.4881
vn -0.4544 -0.4544 -0.7662
vn -0.0000 -0.4881 -0.8728
vn -0.4544 0.4544 -0.7662
vn -0.4881 -0.0000 -0.8728
vn -0.0000 0.4881 -0.8728
vn -0.0000 -0.0000 -1.0000
vn 0.4544 0.4544 -0.7662
vn 0.4881 -0.0000 -0.8728
vn -0.7662 -0.4544 0.4544
vn -0.8728 -0.4881 -0.0000
vn -0.7662 0.4544 0.4544
vn -0.8728 -0.0000 0.4881
vn -0.8728 0.4881 -0.0000
vn -1.0000 -0.0000 -0.0000
vn -0.7662 0.4544 -0.4544
vn -0.8728 -0.0000 -0.4881
s 1
f 56//1 21//1 5//1 19//1
f 52//2 9//2 1//2 23//2
f 48//3 23//3 1//3 11//3
f 44//4 32//4 6//4 27//4
f 40//5 13//5 3//5 12//5
f 36//6 17//6 7//6 16//6
f 13//7 34//7 15//7 3//7
f 34//8 36//8 16//8 15//8
f 4//9 25//9 33//9 14//9
f 14//10 33//10 34//10 13//10
f 25//11 26//11 35//11 33//11
f 33//12 35//12 36//12 34//12
f 26//13 8//13 18//13 35//13
f 35//14 18//14 17//14 36//14
f 9//15 38//15 11//15 1//15
f 38//16 40//16 12//16 11//16
f 2//17 29//17 37//17 10//17
f 10//18 37//18 38//18 9//18
f 29//19 30//19 39//19 37//19
f 37//20 39//20 40//20 38//20
f 30//21 4//21 14//21 39//21
f 39//22 14//22 13//22 40//22
f 26//23 42//23 28//23 8//23
f 42//24 44//24 27//24 28//24
f 4//25 30//25 41//25 25//25
f 25//26 41//26 42//26 26//26
f 30//27 29//27 43//27 41//27
f 41//28 43//28 44//28 42//28
f 29//29 2//29 31//29 43//29
f 43//30 31//30 32//30 44//30
f 15//31 46//31 12//31 3//31
f 46//32 48//32 11//32 12//32
f 7//33 20//33 45//33 16//33
f 16//34 45//34 46//34 15//34
f 20//35 19//35 47//35 45//35
f 45//36 47//36 48//36 46//36
f 19//37 5//37 24//37 47//37
f 47//38 24//38 23//38 48//38
f 21//39 50//39 24//39 5//39
f 50//40 52//40 23//40 24//40
f 6//41 32//41 49//41 22//41
f 22//42 49//42 50//42 21//42
f 32//43 31//43 51//43 49//43
f 49//44 51//44 52//44 50//44
f 31//45 2//45 10//45 51//45
f 51//46 10//46 9//46 52//46
f 17//47 54//47 20//47 7//47
f 54//48 56//48 19//48 20//48
f 8//49 28//49 53//49 18//49
f 18//50 53//50 54//50 17//50
f 28//51 27//51 55//51 53//51
f 53//52 55//52 56//52 54//52
f 27//53 6//53 22//53 55//53
f 55//54 22//54 21//54 56//54
