# Blender 4.3.2
# www.blender.org
o H1.L0.Wall1
v -11.554545 -3.081818 -0.000000
v -11.554545 -3.081818 1.000000
v -11.554545 -0.081818 -0.000001
v -11.554545 -0.081818 0.999999
v -11.354545 -3.081818 -0.000000
v -11.354545 -3.081818 1.000000
v -11.354545 -0.081818 -0.000001
v -11.354545 -0.081818 0.999999
vn -1.0000 -0.0000 -0.0000
vn -0.0000 1.0000 -0.0000
vn 1.0000 -0.0000 -0.0000
vn -0.0000 -1.0000 -0.0000
vn -0.0000 -0.0000 -1.0000
vn -0.0000 -0.0000 1.0000
s 1
f 1//1 2//1 4//1 3//1
f 3//2 4//2 8//2 7//2
f 7//3 8//3 6//3 5//3
f 5//4 6//4 2//4 1//4
f 3//5 7//5 5//5 1//5
f 8//6 4//6 2//6 6//6
o H1.L0.Wall2
v -8.554545 -3.081818 -0.000000
v -8.554545 -3.081818 1.000000
v -8.554545 -0.081818 -0.000001
v -8.554545 -0.081818 0.999999
v -8.354545 -3.081818 -0.000000
v -8.354545 -3.081818 1.000000
v -8.354545 -0.081818 -0.000001
v -8.354545 -0.081818 0.999999
vn -1.0000 -0.0000 -0.0000
vn -0.0000 1.0000 -0.0000
vn 1.0000 -0.0000 -0.0000
vn -0.0000 -1.0000 -0.0000
vn -0.0000 -0.0000 -1.0000
vn -0.0000 -0.0000 1.0000
s 1
f 9//7 10//7 12//7 11//7
f 11//8 12//8 16//8 15//8
f 15//9 16//9 14//9 13//9
f 13//10 14//10 10//10 9//10
f 11//11 15//11 13//11 9//11
f 16//12 12//12 10//12 14//12
o H1.L0.Wall3
v -8.354545 -0.081818 -0.000000
v -8.354545 -0.081818 1.000000
v -11.554545 -0.081818 -0.000001
v -11.554545 -0.081818 0.999999
v -8.354545 0.118182 -0.000000
v -8.354545 0.118182 1.000000
v -11.554545 0.118182 -0.000001
v -11.554545 0.118182 0.999999
vn -0.0000 -1.0000 -0.0000
vn -1.0000 -0.0000 -0.0000
vn -0.0000 1.0000 -0.0000
vn 1.0000 -0.0000 -0.0000
vn -0.0000 -0.0000 -1.0000
vn -0.0000 -0.0000 1.0000
s 1
f 17//13 18//13 20//13 19//13
f 19//14 20//14 24//14 23//14
f 23//15 24//15 22//15 21//15
f 21//16 22//16 18//16 17//16
f 19//17 23//17 21//17 17//17
f 24//18 20//18 18//18 22//18
o H1.L0.Wall4
v -8.354545 -3.281818 -0.000000
v -8.354545 -3.281818 1.000000
v -8.354545 -3.081818 -0.000000
v -8.354545 -3.081818 1.000000
v -9.705266 -3.281818 -0.000000
v -9.705266 -3.281818 1.000000
v -9.705266 -3.081818 -0.000000
v -9.705266 -3.081818 1.000000
vn -0.0000 1.0000 -0.0000
vn 1.0000 -0.0000 -0.0000
vn -0.0000 -0.0000 -1.0000
vn -0.0000 -0.0000 1.0000
vn -0.0000 -1.0000 -0.0000
vn -1.0000 -0.0000 -0.0000
s 0
f 31//19 32//19 28//19 27//19
f 27//20 28//20 26//20 25//20
f 29//21 31//21 27//21 25//21
f 32//22 30//22 26//22 28//22
f 25//23 26//23 30//23 29//23
f 30//24 32//24 31//24 29//24
o H1.L0.Wall5
v -11.554545 -3.281818 -0.000001
v -11.554545 -3.281818 0.999999
v -11.554545 -3.081818 -0.000001
v -11.554545 -3.081818 0.999999
v -10.203824 -3.281818 -0.000001
v -10.203824 -3.281818 0.999999
v -10.203824 -3.081818 -0.000001
v -10.203824 -3.081818 0.999999
vn -0.0000 -1.0000 -0.0000
vn -1.0000 -0.0000 -0.0000
vn -0.0000 -0.0000 1.0000
vn -0.0000 -0.0000 -1.0000
vn -0.0000 1.0000 -0.0000
vn 1.0000 -0.0000 -0.0000
s 0
f 37//25 38//25 34//25 33//25
f 33//26 34//26 36//26 35//26
f 36//27 34//27 38//27 40//27
f 33//28 35//28 39//28 37//28
f 35//29 36//29 40//29 39//29
f 38//30 37//30 39//30 40//30
o H1.L0.Stair.posy
v -9.554545 -2.081818 -0.000001
v -9.554545 -1.000000 -0.000001
v -9.554545 -1.000000 0.999999
v -8.554545 -2.081818 -0.000001
v -8.554545 -1.000000 0.999999
v -8.554545 -1.000000 -0.000001
vn -1.0000 -0.0000 -0.0000
vn -0.0000 1.0000 -0.0000
vn 1.0000 -0.0000 -0.0000
vn -0.0000 -0.6788 0.7343
vn -0.0000 -0.0000 -1.0000
s 1
f 41//31 43//31 42//31
f 42//32 43//32 45//32 46//32
f 46//33 45//33 44//33
f 44//34 45//34 43//34 41//34
f 42//35 46//35 44//35 41//35
o H1.L0.Hitbox
v -11.354545 -3.081818 0.000000
v -8.554545 -3.081818 0.000000
v -11.354545 -0.081818 0.000000
v -8.554545 -0.081818 0.000000
v -11.354545 -0.081818 0.000000
v -11.354545 -3.081818 0.000000
v -8.554545 -3.081818 0.000000
v -8.554545 -0.081818 0.000000
v -11.354545 -0.081818 0.000000
v -11.354545 -3.081818 0.000000
v -8.554545 -3.081818 0.000000
v -8.554545 -0.081818 0.000000
v -11.354545 -0.081818 0.900000
v -11.354545 -3.081818 0.900000
v -8.554545 -3.081818 0.900000
v -8.554545 -0.081818 0.900000
vn -0.0000 -0.0000 -1.0000
vn -0.0000 -0.0000 1.0000
vn 1.0000 -0.0000 -0.0000
vn -1.0000 -0.0000 -0.0000
vn -0.0000 1.0000 -0.0000
vn -0.0000 -1.0000 -0.0000
s 0
f 47//36 49//36 50//36 48//36
f 54//37 51//37 55//37 58//37
f 50//37 49//37 51//37 54//37
f 47//37 48//37 53//37 52//37
f 48//37 50//37 54//37 53//37
f 49//37 47//37 52//37 51//37
f 57//38 58//38 62//38 61//38
f 52//37 53//37 57//37 56//37
f 53//37 54//37 58//37 57//37
f 51//37 52//37 56//37 55//37
f 60//37 61//37 62//37 59//37
f 55//39 56//39 60//39 59//39
f 58//40 55//40 59//40 62//40
f 56//41 57//41 61//41 60//41
o H1.L1.Floor1
v -11.554545 -3.281818 0.900000
v -9.554545 -3.281818 0.900000
v -11.554545 0.118182 0.900000
v -9.554545 0.118182 0.900000
v -11.554545 0.118182 1.000000
v -11.554545 -3.281818 1.000000
v -9.554545 -3.281818 1.000000
v -9.554545 0.118182 1.000000
vn -0.0000 -0.0000 -1.0000
vn -0.0000 -0.0000 1.0000
vn 1.0000 -0.0000 -0.0000
vn -1.0000 -0.0000 -0.0000
vn -0.0000 1.0000 -0.0000
vn -0.0000 -1.0000 -0.0000
s 0
f 63//42 65//42 66//42 64//42
f 68//43 69//43 70//43 67//43
f 64//44 66//44 70//44 69//44
f 65//45 63//45 68//45 67//45
f 66//46 65//46 67//46 70//46
f 63//47 64//47 69//47 68//47
o H1.L1.Floor2
v -9.554545 -1.000000 0.900000
v -8.354545 -1.000000 0.900000
v -9.554545 0.118182 0.900000
v -8.354545 0.118182 0.900000
v -9.554545 0.118182 1.000000
v -9.554545 -1.000000 1.000000
v -8.354545 -1.000000 1.000000
v -8.354545 0.118182 1.000000
vn -0.0000 -0.0000 -1.0000
vn -0.0000 -0.0000 1.0000
vn 1.0000 -0.0000 -0.0000
vn -1.0000 -0.0000 -0.0000
vn -0.0000 1.0000 -0.0000
vn -0.0000 -1.0000 -0.0000
s 0
f 71//48 73//48 74//48 72//48
f 76//49 77//49 78//49 75//49
f 72//50 74//50 78//50 77//50
f 73//51 71//51 76//51 75//51
f 74//52 73//52 75//52 78//52
f 71//53 72//53 77//53 76//53
o H1.L1.Wall4
v -8.354545 -3.281818 1.000000
v -8.354545 -3.281818 2.000000
v -8.354545 -3.081818 1.000000
v -8.354545 -3.081818 2.000000
v -11.554545 -3.281818 0.999999
v -11.554545 -3.281818 2.000000
v -11.554545 -3.081818 0.999999
v -11.554545 -3.081818 2.000000
vn -0.0000 1.0000 -0.0000
vn 1.0000 -0.0000 -0.0000
vn -0.0000 -0.0000 -1.0000
vn -0.0000 -0.0000 1.0000
vn -0.0000 -1.0000 -0.0000
vn -1.0000 -0.0000 -0.0000
s 0
f 85//54 86//54 82//54 81//54
f 81//55 82//55 80//55 79//55
f 83//56 85//56 81//56 79//56
f 86//57 84//57 80//57 82//57
f 79//58 80//58 84//58 83//58
f 84//59 86//59 85//59 83//59
o H1.L1.Wall3
v -8.354545 -0.081818 1.000000
v -8.354545 -0.081818 2.000000
v -11.554545 -0.081818 0.999999
v -11.554545 -0.081818 1.999999
v -8.354545 0.118182 1.000000
v -8.354545 0.118182 2.000000
v -11.554545 0.118182 0.999999
v -11.554545 0.118182 1.999999
vn -0.0000 -1.0000 -0.0000
vn -1.0000 -0.0000 -0.0000
vn -0.0000 1.0000 -0.0000
vn 1.0000 -0.0000 -0.0000
vn -0.0000 -0.0000 -1.0000
vn -0.0000 -0.0000 1.0000
s 1
f 87//60 88//60 90//60 89//60
f 89//61 90//61 94//61 93//61
f 93//62 94//62 92//62 91//62
f 91//63 92//63 88//63 87//63
f 89//64 93//64 91//64 87//64
f 94//65 90//65 88//65 92//65
o H1.L1.Wall2
v -8.554545 -3.081818 1.000000
v -8.554545 -3.081818 2.000000
v -8.554545 -0.081818 0.999999
v -8.554545 -0.081818 1.999999
v -8.354545 -3.081818 1.000000
v -8.354545 -3.081818 2.000000
v -8.354545 -0.081818 0.999999
v -8.354545 -0.081818 1.999999
vn -1.0000 -0.0000 -0.0000
vn -0.0000 1.0000 -0.0000
vn 1.0000 -0.0000 -0.0000
vn -0.0000 -1.0000 -0.0000
vn -0.0000 -0.0000 -1.0000
vn -0.0000 -0.0000 1.0000
s 1
f 95//66 96//66 98//66 97//66
f 97//67 98//67 102//67 101//67
f 101//68 102//68 100//68 99//68
f 99//69 100//69 96//69 95//69
f 97//70 101//70 99//70 95//70
f 102//71 98//71 96//71 100//71
o H1.L1.Wall1
v -11.554545 -3.081818 1.000000
v -11.554545 -3.081818 2.000000
v -11.554545 -0.081818 0.999999
v -11.554545 -0.081818 1.999999
v -11.354545 -3.081818 1.000000
v -11.354545 -3.081818 2.000000
v -11.354545 -0.081818 0.999999
v -11.354545 -0.081818 1.999999
vn -1.0000 -0.0000 -0.0000
vn -0.0000 1.0000 -0.0000
vn 1.0000 -0.0000 -0.0000
vn -0.0000 -1.0000 -0.0000
vn -0.0000 -0.0000 -1.0000
vn -0.0000 -0.0000 1.0000
s 1
f 103//72 104//72 106//72 105//72
f 105//73 106//73 110//73 109//73
f 109//74 110//74 108//74 107//74
f 107//75 108//75 104//75 103//75
f 105//76 109//76 107//76 103//76
f 110//77 106//77 104//77 108//77
o H1.L1.Stair.negy
v -10.354545 -1.081818 0.999999
v -10.354544 -2.163636 0.999999
v -10.354545 -2.163636 1.999999
v -11.354545 -1.081818 0.999999
v -11.354545 -2.163636 1.999999
v -11.354544 -2.163636 0.999999
vn 1.0000 -0.0000 -0.0000
vn -0.0000 -1.0000 -0.0000
vn -1.0000 -0.0000 -0.0000
vn -0.0000 0.6788 0.7343
vn -0.0000 -0.0000 -1.0000
s 1
f 111//78 113//78 112//78
f 112//79 113//79 115//79 116//79
f 116//80 115//80 114//80
f 114//81 115//81 113//81 111//81
f 112//82 116//82 114//82 111//82
o H1.L1.Hitbox
v -11.354545 -3.081818 0.999999
v -8.554545 -3.081818 0.999999
v -11.354545 -0.081818 0.999999
v -8.554545 -0.081818 0.999999
v -11.354545 -0.081818 0.999999
v -11.354545 -3.081818 0.999999
v -8.554545 -3.081818 0.999999
v -8.554545 -0.081818 0.999999
v -11.354545 -0.081818 0.999999
v -11.354545 -3.081818 0.999999
v -8.554545 -3.081818 0.999999
v -8.554545 -0.081818 0.999999
v -11.354545 -0.081818 1.899999
v -11.354545 -3.081818 1.899999
v -8.554545 -3.081818 1.899999
v -8.554545 -0.081818 1.899999
vn -0.0000 -0.0000 -1.0000
vn -0.0000 -0.0000 1.0000
vn 1.0000 -0.0000 -0.0000
vn -1.0000 -0.0000 -0.0000
vn -0.0000 1.0000 -0.0000
vn -0.0000 -1.0000 -0.0000
s 0
f 117//83 119//83 120//83 118//83
f 124//84 121//84 125//84 128//84
f 120//84 119//84 121//84 124//84
f 117//84 118//84 123//84 122//84
f 118//84 120//84 124//84 123//84
f 119//84 117//84 122//84 121//84
f 127//85 128//85 132//85 131//85
f 122//84 123//84 127//84 126//84
f 123//84 124//84 128//84 127//84
f 121//84 122//84 126//84 125//84
f 130//84 131//84 132//84 129//84
f 125//86 126//86 130//86 129//86
f 128//87 125//87 129//87 132//87
f 126//88 127//88 131//88 130//88
o H1.L2.Wall4
v -8.354545 -3.281818 2.000000
v -8.354545 -3.281818 3.000000
v -8.354545 -3.081818 2.000000
v -8.354545 -3.081818 3.000000
v -11.554545 -3.281818 1.999999
v -11.554545 -3.281818 2.999999
v -11.554545 -3.081818 1.999999
v -11.554545 -3.081818 2.999999
vn -0.0000 1.0000 -0.0000
vn 1.0000 -0.0000 -0.0000
vn -0.0000 -0.0000 -1.0000
vn -0.0000 -0.0000 1.0000
vn -0.0000 -1.0000 -0.0000
vn -1.0000 -0.0000 -0.0000
s 0
f 139//89 140//89 136//89 135//89
f 135//90 136//90 134//90 133//90
f 137//91 139//91 135//91 133//91
f 140//92 138//92 134//92 136//92
f 133//93 134//93 138//93 137//93
f 138//94 140//94 139//94 137//94
o H1.L2.Wall3
v -8.354545 -0.081818 2.000000
v -8.354545 -0.081818 3.000000
v -11.554545 -0.081818 1.999999
v -11.554545 -0.081818 2.999999
v -8.354545 0.118182 2.000000
v -8.354545 0.118182 3.000000
v -11.554545 0.118182 1.999999
v -11.554545 0.118182 2.999999
vn -0.0000 -1.0000 -0.0000
vn -1.0000 -0.0000 -0.0000
vn -0.0000 1.0000 -0.0000
vn 1.0000 -0.0000 -0.0000
vn -0.0000 -0.0000 -1.0000
vn -0.0000 -0.0000 1.0000
s 1
f 141//95 142//95 144//95 143//95
f 143//96 144//96 148//96 147//96
f 147//97 148//97 146//97 145//97
f 145//98 146//98 142//98 141//98
f 143//99 147//99 145//99 141//99
f 148//100 144//100 142//100 146//100
o H1.L2.Wall2
v -8.554545 -3.081818 2.000000
v -8.554545 -3.081818 3.000000
v -8.554545 -0.081818 1.999999
v -8.554545 -0.081818 2.999999
v -8.354545 -3.081818 2.000000
v -8.354545 -3.081818 3.000000
v -8.354545 -0.081818 1.999999
v -8.354545 -0.081818 2.999999
vn -1.0000 -0.0000 -0.0000
vn -0.0000 1.0000 -0.0000
vn 1.0000 -0.0000 -0.0000
vn -0.0000 -1.0000 -0.0000
vn -0.0000 -0.0000 -1.0000
vn -0.0000 -0.0000 1.0000
s 1
f 149//101 150//101 152//101 151//101
f 151//102 152//102 156//102 155//102
f 155//103 156//103 154//103 153//103
f 153//104 154//104 150//104 149//104
f 151//105 155//105 153//105 149//105
f 156//106 152//106 150//106 154//106
o H1.L2.Wall1
v -11.554545 -3.081818 2.000000
v -11.554545 -3.081818 3.000000
v -11.554545 -0.081818 1.999999
v -11.554545 -0.081818 2.999999
v -11.354545 -3.081818 2.000000
v -11.354545 -3.081818 3.000000
v -11.354545 -0.081818 1.999999
v -11.354545 -0.081818 2.999999
vn -1.0000 -0.0000 -0.0000
vn -0.0000 1.0000 -0.0000
vn 1.0000 -0.0000 -0.0000
vn -0.0000 -1.0000 -0.0000
vn -0.0000 -0.0000 -1.0000
vn -0.0000 -0.0000 1.0000
s 1
f 157//107 158//107 160//107 159//107
f 159//108 160//108 164//108 163//108
f 163//109 164//109 162//109 161//109
f 161//110 162//110 158//110 157//110
f 159//111 163//111 161//111 157//111
f 164//112 160//112 158//112 162//112
o H1.L2.Floor2
v -10.354545 -2.163637 1.900000
v -11.554545 -2.163637 1.900000
v -10.354544 -3.281819 1.900000
v -11.554544 -3.281819 1.900000
v -10.354544 -3.281819 2.000000
v -10.354545 -2.163637 2.000000
v -11.554545 -2.163637 2.000000
v -11.554544 -3.281819 2.000000
vn -0.0000 -0.0000 -1.0000
vn -0.0000 -0.0000 1.0000
vn -1.0000 -0.0000 -0.0000
vn 1.0000 -0.0000 -0.0000
vn -0.0000 -1.0000 -0.0000
vn -0.0000 1.0000 -0.0000
s 0
f 165//113 167//113 168//113 166//113
f 170//114 171//114 172//114 169//114
f 166//115 168//115 172//115 171//115
f 167//116 165//116 170//116 169//116
f 168//117 167//117 169//117 172//117
f 165//118 166//118 171//118 170//118
o H1.L2.Floor1
v -8.354545 0.118182 1.900000
v -10.354545 0.118181 1.900000
v -8.354544 -3.281818 1.900000
v -10.354544 -3.281819 1.900000
v -8.354544 -3.281818 2.000000
v -8.354545 0.118182 2.000000
v -10.354545 0.118181 2.000000
v -10.354544 -3.281819 2.000000
vn -0.0000 -0.0000 -1.0000
vn -0.0000 -0.0000 1.0000
vn -1.0000 -0.0000 -0.0000
vn 1.0000 -0.0000 -0.0000
vn -0.0000 -1.0000 -0.0000
vn -0.0000 1.0000 -0.0000
s 0
f 173//119 175//119 176//119 174//119
f 178//120 179//120 180//120 177//120
f 174//121 176//121 180//121 179//121
f 175//122 173//122 178//122 177//122
f 176//123 175//123 177//123 180//123
f 173//124 174//124 179//124 178//124
o H1.L2.Hitbox
v -11.354545 -3.081818 2.000000
v -8.554545 -3.081818 2.000000
v -11.354545 -0.081818 2.000000
v -8.554545 -0.081818 2.000000
v -11.354545 -0.081818 2.000000
v -11.354545 -3.081818 2.000000
v -8.554545 -3.081818 2.000000
v -8.554545 -0.081818 2.000000
v -11.354545 -0.081818 2.000000
v -11.354545 -3.081818 2.000000
v -8.554545 -3.081818 2.000000
v -8.554545 -0.081818 2.000000
v -11.354545 -0.081818 2.899999
v -11.354545 -3.081818 2.899999
v -8.554545 -3.081818 2.899999
v -8.554545 -0.081818 2.899999
vn -0.0000 -0.0000 -1.0000
vn -0.0000 -0.0000 1.0000
vn 1.0000 -0.0000 -0.0000
vn -1.0000 -0.0000 -0.0000
vn -0.0000 1.0000 -0.0000
vn -0.0000 -1.0000 -0.0000
s 0
f 181//125 183//125 184//125 182//125
f 188//126 185//126 189//126 192//126
f 184//126 183//126 185//126 188//126
f 181//126 182//126 187//126 186//126
f 182//126 184//126 188//126 187//126
f 183//126 181//126 186//126 185//126
f 191//127 192//127 196//127 195//127
f 186//126 187//126 191//126 190//126
f 187//126 188//126 192//126 191//126
f 185//126 186//126 190//126 189//126
f 194//126 195//126 196//126 193//126
f 189//128 190//128 194//128 193//128
f 192//129 189//129 193//129 196//129
f 190//130 191//130 195//130 194//130
o H1.L3.Floor1
v -8.354545 0.118182 2.899999
v -11.554546 0.118181 2.899999
v -8.354544 -3.281818 2.899999
v -11.554545 -3.281819 2.899999
v -8.354544 -3.281818 2.999999
v -8.354545 0.118182 2.999999
v -11.554546 0.118181 2.999999
v -11.554545 -3.281819 2.999999
vn -0.0000 -0.0000 -1.0000
vn -0.0000 -0.0000 1.0000
vn -1.0000 -0.0000 -0.0000
vn 1.0000 -0.0000 -0.0000
vn -0.0000 -1.0000 -0.0000
vn -0.0000 1.0000 -0.0000
s 0
f 197//131 199//131 200//131 198//131
f 202//132 203//132 204//132 201//132
f 198//133 200//133 204//133 203//133
f 199//134 197//134 202//134 201//134
f 200//135 199//135 201//135 204//135
f 197//136 198//136 203//136 202//136
