# Blender 4.3.2
# www.blender.org
o potion
v -0.031761 -0.031761 -0.077402
v -0.013628 -0.013628 0.015454
v -0.031761 0.031761 -0.077402
v -0.013628 0.013628 0.015454
v 0.031761 -0.031761 -0.077402
v 0.013628 -0.013628 0.015454
v 0.031761 0.031761 -0.077402
v 0.013628 0.013628 0.015454
v -0.046550 -0.046550 -0.051641
v -0.039910 -0.039910 -0.020608
v -0.039910 0.039910 -0.020608
v -0.046550 0.046550 -0.051641
v 0.039910 0.039910 -0.020608
v 0.046550 0.046550 -0.051641
v 0.039910 -0.039910 -0.020608
v 0.046550 -0.046550 -0.051641
v -0.025838 -0.025838 -0.003681
v -0.025838 0.025838 -0.003681
v 0.025838 0.025838 -0.003681
v 0.025838 -0.025838 -0.003681
v -0.008183 -0.008183 0.061490
v -0.008183 0.008183 0.061490
v 0.008183 0.008183 0.061490
v 0.008183 -0.008183 0.061490
v -0.013140 -0.013140 0.062952
v -0.013140 0.013140 0.062952
v 0.013140 0.013140 0.062952
v 0.013140 -0.013140 0.062952
v -0.011000 -0.011000 0.076267
v -0.011000 0.011000 0.076267
v 0.011000 0.011000 0.076267
v 0.011000 -0.011000 0.076267
vn -0.7690 -0.0000 0.6393
vn -0.0000 0.7690 0.6393
vn 0.7690 -0.0000 0.6393
vn -0.0000 -0.7690 0.6393
vn -0.0000 -0.0000 -1.0000
vn 0.9931 -0.0000 0.1175
vn -0.0000 -0.8673 -0.4979
vn -0.0000 -0.9779 0.2092
vn 0.8673 -0.0000 -0.4979
vn 0.9779 -0.0000 0.2092
vn -0.0000 0.8673 -0.4979
vn -0.0000 0.9779 0.2092
vn -0.8673 -0.0000 -0.4979
vn -0.9779 -0.0000 0.2092
vn -0.8430 -0.0000 0.5379
vn -0.0000 0.8430 0.5379
vn 0.8430 -0.0000 0.5379
vn -0.0000 -0.8430 0.5379
vn -0.2830 -0.0000 -0.9591
vn -0.9931 -0.0000 0.1175
vn -0.0000 -0.9931 0.1175
vn -0.0000 0.9931 0.1175
vn -0.0000 -0.9873 0.1586
vn -0.0000 -0.2830 -0.9591
vn -0.0000 0.2830 -0.9591
vn 0.2830 -0.0000 -0.9591
vn -0.0000 -0.0000 1.0000
vn -0.0000 0.9873 0.1586
vn 0.9873 -0.0000 0.1586
vn -0.9873 -0.0000 0.1586
s 0
f 10//1 17//1 18//1 11//1
f 11//2 18//2 19//2 13//2
f 13//3 19//3 20//3 15//3
f 15//4 20//4 17//4 10//4
f 3//5 7//5 5//5 1//5
f 6//6 8//6 23//6 24//6
f 5//7 16//7 9//7 1//7
f 16//8 15//8 10//8 9//8
f 7//9 14//9 16//9 5//9
f 14//10 13//10 15//10 16//10
f 3//11 12//11 14//11 7//11
f 12//12 11//12 13//12 14//12
f 1//13 9//13 12//13 3//13
f 9//14 10//14 11//14 12//14
f 2//15 4//15 18//15 17//15
f 4//16 8//16 19//16 18//16
f 8//17 6//17 20//17 19//17
f 6//18 2//18 17//18 20//18
f 22//19 21//19 25//19 26//19
f 4//20 2//20 21//20 22//20
f 2//21 6//21 24//21 21//21
f 8//22 4//22 22//22 23//22
f 25//23 28//23 32//23 29//23
f 21//24 24//24 28//24 25//24
f 23//25 22//25 26//25 27//25
f 24//26 23//26 27//26 28//26
f 31//27 30//27 29//27 32//27
f 27//28 26//28 30//28 31//28
f 28//29 27//29 31//29 32//29
f 26//30 25//30 29//30 30//30
