# Blender 4.3.2
# www.blender.org
o Projectile
v 0.006445 -0.250484 0.008871
v -0.006445 -0.250484 0.008871
v -0.010428 -0.250484 -0.003388
v 0.010428 -0.250484 -0.003388
v 0.000000 -0.250484 -0.010965
v 0.001175 -0.000280 0.000000
v -0.001175 -0.000280 0.000000
v 0.010934 -0.057757 0.000000
v -0.010934 -0.057757 0.000000
v 0.000000 -0.250484 -0.010965
v -0.010428 -0.250484 -0.003388
v -0.006445 -0.250484 0.008871
v 0.006445 -0.250484 0.008871
v 0.010428 -0.250484 -0.003388
v -0.006479 -0.049036 -0.002106
v 0.000000 -0.049036 -0.006813
v -0.004004 -0.049036 0.005511
v 0.004004 -0.049036 0.005511
v 0.006479 -0.049036 -0.002106
v 0.001029 -0.000280 -0.000927
v -0.001029 -0.000280 0.000927
v -0.001029 -0.000280 -0.000927
v 0.001029 -0.000280 0.000927
v -0.005086 -0.054799 -0.015256
v -0.002896 -0.047622 -0.018086
v 0.002896 -0.047622 -0.018086
v 0.005086 -0.054799 -0.015256
v -0.002896 -0.047622 0.018086
v -0.005086 -0.054799 0.015256
v 0.005086 -0.054799 0.015256
v 0.002896 -0.047622 0.018086
v -0.004036 -0.179844 0.004001
v -0.004037 -0.240508 0.003981
v 0.004171 -0.179844 0.003835
v 0.004170 -0.240508 0.003815
v 0.002224 -0.201696 0.020265
v 0.000052 -0.201696 0.020309
v 0.000738 -0.261444 0.030805
v 0.002910 -0.261444 0.030761
v 0.003364 -0.178616 -0.003738
v 0.003367 -0.239280 -0.003718
v -0.002804 -0.178616 -0.003274
v -0.002801 -0.239280 -0.003254
v -0.002797 -0.200467 -0.019739
v -0.001165 -0.200467 -0.019862
v -0.002615 -0.260215 -0.030311
v -0.004247 -0.260215 -0.030188
vn -0.0000 -0.0000 1.0000
vn -0.0000 -0.9817 0.1903
vn 0.9334 0.1586 -0.3220
vn 0.9316 0.1621 -0.3252
vn 0.9321 0.1548 -0.3273
vn -0.0000 0.3407 0.9402
vn -0.0000 -0.9817 -0.1903
vn -0.9334 0.1586 0.3220
vn -0.9316 0.1621 0.3252
vn -0.9321 0.1548 0.3273
vn -0.0000 1.0000 -0.0000
vn 0.9595 0.1289 0.2506
vn 0.9682 0.1981 0.1526
vn 0.9881 -0.0093 0.1534
vn -0.9595 0.1289 -0.2506
vn -0.9682 0.1981 -0.1526
vn -0.9881 -0.0093 -0.1534
vn -0.5877 0.0167 -0.8089
vn 0.9509 0.0167 0.3090
vn -0.9509 0.0167 0.3090
vn 0.5877 0.0167 -0.8089
vn -0.0000 0.0167 0.9999
vn -0.0000 -0.3668 -0.9303
vn -0.0000 -0.3668 0.9303
vn -0.0000 0.3407 -0.9402
vn -0.0202 0.0003 -0.9998
vn 0.0199 0.1732 0.9847
vn 0.0162 0.6000 0.7999
vn 0.9969 0.0175 0.0768
vn 0.9969 0.0174 0.0768
vn -0.9741 0.0074 0.2262
vn -0.9741 0.0072 0.2261
vn -0.9741 0.0073 0.2261
vn -0.0124 -0.7893 -0.6138
vn 0.0750 0.0003 0.9972
vn -0.0739 0.1735 -0.9821
vn -0.0600 0.6007 -0.7972
vn -0.9995 0.0119 0.0278
vn 0.9673 0.0074 -0.2536
vn 0.9673 0.0073 -0.2536
vn 0.0460 -0.7899 0.6115
vn 0.9881 -0.0093 -0.1534
vn 0.9682 0.1981 -0.1526
vn 0.9595 0.1289 -0.2506
vn 0.9316 0.1598 -0.3265
vn 0.9305 0.1582 -0.3303
vn 0.9330 0.1510 -0.3266
vn -0.9881 -0.0093 0.1534
vn -0.9682 0.1981 0.1526
vn -0.9595 0.1289 0.2506
vn -0.9316 0.1598 0.3265
vn -0.9305 0.1582 0.3303
vn -0.9330 0.1510 0.3266
vn 0.9334 0.1586 0.3220
vn 0.9321 0.1548 0.3273
vn 0.9316 0.1621 0.3252
vn 0.9305 0.1582 0.3303
vn 0.9316 0.1598 0.3265
vn 0.9330 0.1510 0.3266
vn -0.9334 0.1586 -0.3219
vn -0.9321 0.1548 -0.3273
vn -0.9316 0.1621 -0.3252
vn -0.9305 0.1582 -0.3303
vn -0.9316 0.1598 -0.3265
vn -0.9330 0.1510 -0.3266
vn 0.9949 0.0073 0.1003
vn -0.9787 0.0172 0.2045
vn -0.9998 0.0073 0.0170
vn 0.9696 0.0117 -0.2443
vn -0.0000 -1.0000 -0.0000
vn -0.0000 -0.0000 -1.0000
vn -0.0000 0.9511 -0.3090
vn -0.0000 -0.8090 0.5878
vn -0.0000 0.8090 -0.5878
vn -0.0000 -0.9511 0.3090
vn -0.0000 0.8090 0.5878
vn -0.0000 -0.9511 -0.3090
s 0
f 10//1 5//1 3//1
f 14//1 4//1 5//1
f 11//1 3//1 2//1
f 13//1 1//1 4//1
f 12//1 2//1 1//1
f 8//2 30//2 29//2
f 6//3 8//4 26//5
f 28//6 31//6 23//6
f 27//7 8//7 9//7
f 7//8 9//9 28//10
f 7//11 6//11 20//11
f 21//11 23//11 6//11
f 31//12 6//13 23//14
f 25//15 7//16 22//17
f 10//18 11//18 15//18
f 19//11 17//11 18//11
f 13//19 14//19 19//19
f 11//20 12//20 17//20
f 14//21 10//21 16//21
f 12//22 13//22 18//22
f 27//23 24//23 25//23
f 30//24 31//24 28//24
f 26//25 25//25 22//25
f 32//26 35//26 33//26
f 37//27 39//27 36//27
f 32//28 36//28 34//28
f 35//29 36//30 39//29
f 33//31 37//32 32//33
f 33//34 39//34 38//34
f 40//35 43//35 41//35
f 45//36 47//36 44//36
f 40//37 44//37 42//37
f 43//38 44//38 47//38
f 41//39 45//40 40//40
f 41//41 47//41 46//41
f 10//1 3//1 11//1
f 14//1 5//1 10//1
f 11//1 2//1 12//1
f 13//1 4//1 14//1
f 12//1 1//1 13//1
f 8//2 29//2 9//2
f 20//42 6//43 26//44
f 26//45 8//46 27//47
f 28//6 23//6 21//6
f 27//7 9//7 24//7
f 21//48 7//49 28//50
f 28//51 9//52 29//53
f 7//11 20//11 22//11
f 21//11 6//11 7//11
f 6//54 31//55 8//56
f 8//57 31//58 30//59
f 7//60 25//61 9//62
f 9//63 25//64 24//65
f 10//18 15//18 16//18
f 17//11 16//11 15//11
f 16//11 17//11 19//11
f 13//19 19//19 18//19
f 11//20 17//20 15//20
f 14//21 16//21 19//21
f 12//22 18//22 17//22
f 27//23 25//23 26//23
f 30//24 28//24 29//24
f 26//25 22//25 20//25
f 32//26 34//26 35//26
f 37//27 38//27 39//27
f 32//28 37//28 36//28
f 35//66 34//66 36//66
f 33//67 38//67 37//67
f 33//34 35//34 39//34
f 40//35 42//35 43//35
f 45//36 46//36 47//36
f 40//37 45//37 44//37
f 43//68 42//68 44//68
f 41//69 46//69 45//69
f 41//41 43//41 47//41
f 4//70 1//70 12//70
f 11//71 3//72 5//73
f 11//74 5//1 10//75
f 12//70 11//70 4//70
f 11//70 10//70 4//70
f 10//76 14//71 4//77
l 3 14
