# Blender 4.3.2
# www.blender.org
o Target
v 0.199915 0.041049 0.076724
v 0.137788 0.027894 0.000243
v 0.137788 0.096855 0.401173
v 0.199915 0.083700 0.324691
v -0.137788 0.027894 0.000243
v -0.199915 0.041049 0.076724
v -0.199915 0.083700 0.324691
v -0.137788 0.096855 0.401173
v 0.073761 -0.090110 0.080967
v 0.137788 -0.085001 0.000243
v 0.095618 -0.085983 0.104961
v 0.199915 -0.071835 0.076724
v 0.095618 -0.053045 0.296454
v 0.199915 -0.029183 0.324691
v 0.073761 -0.048918 0.320448
v 0.137788 -0.016039 0.401173
v -0.095618 -0.085983 0.104961
v -0.199915 -0.071835 0.076724
v -0.073761 -0.090110 0.080967
v -0.137788 -0.085001 0.000243
v -0.073761 -0.048918 0.320448
v -0.137788 -0.016039 0.401173
v -0.095618 -0.053045 0.296454
v -0.199915 -0.029183 0.324691
v 0.177379 -0.088967 0.087611
v 0.128244 -0.099371 0.027124
v 0.128244 -0.039656 0.374291
v 0.177379 -0.050060 0.313804
v -0.177379 -0.050060 0.313804
v -0.128244 -0.039656 0.374291
v -0.128244 -0.099371 0.027124
v -0.177379 -0.088967 0.087611
v 0.095618 0.019005 0.097830
v 0.073761 0.014878 0.073836
v 0.073761 0.056069 0.313317
v 0.095618 0.051942 0.289323
v -0.095618 0.051942 0.289323
v -0.073761 0.056069 0.313317
v -0.073761 0.014878 0.073836
v -0.095618 0.019005 0.097830
vn -0.0000 0.9855 -0.1695
vn 1.0000 -0.0000 -0.0000
vn -0.7762 -0.0000 -0.6305
vn 0.7762 -0.0000 0.6305
vn -0.7762 -0.0000 0.6305
vn -0.0000 -0.0000 -1.0000
vn -0.0000 -0.0000 1.0000
vn -1.0000 -0.0000 -0.0000
vn 0.4997 -0.8250 -0.2639
vn 0.4504 -0.7439 0.4937
vn -0.4505 -0.7438 0.4938
vn -0.4995 -0.8252 -0.2638
vn -0.0000 -0.8819 -0.4714
vn 0.6392 -0.7579 0.1304
vn -0.0000 -0.7513 0.6600
vn -0.6392 -0.7579 0.1304
vn 0.7762 -0.0000 -0.6305
vn -0.0000 -0.9855 0.1695
vn 0.7424 0.0454 0.6685
vn -0.7424 -0.0454 -0.6685
vn -0.0000 -0.0678 -0.9977
vn -0.0000 0.0678 0.9977
vn 0.7424 -0.0454 -0.6685
vn -0.7424 0.0454 0.6685
vn 0.4995 -0.8252 -0.2638
vn 0.4505 -0.7438 0.4938
vn -0.4504 -0.7439 0.4937
vn -0.4997 -0.8250 -0.2639
s 0
f 6//1 7//1 8//1
f 1//2 14//2 12//2
f 18//3 5//3 20//3
f 4//4 16//4 14//4
f 22//5 7//5 24//5
f 2//6 20//6 5//6
f 8//7 16//7 3//7
f 6//8 24//8 7//8
f 23//2 40//2 37//2
f 25//9 10//9 12//9
f 27//10 14//10 16//10
f 30//11 24//11 29//11
f 32//12 20//12 31//12
f 31//13 10//13 26//13
f 28//14 12//14 14//14
f 22//15 27//15 16//15
f 18//16 29//16 24//16
f 2//17 12//17 10//17
f 11//18 26//18 25//18
f 13//18 27//18 15//18
f 23//18 30//18 29//18
f 17//18 31//18 19//18
f 9//18 31//18 26//18
f 11//18 28//18 13//18
f 15//18 30//18 21//18
f 23//18 32//18 17//18
f 33//18 36//18 35//18
f 13//8 33//8 11//8
f 17//19 39//19 40//19
f 15//20 36//20 13//20
f 21//21 35//21 15//21
f 9//22 39//22 19//22
f 21//23 37//23 38//23
f 11//24 34//24 9//24
f 8//1 3//1 2//1
f 3//1 4//1 2//1
f 4//1 1//1 2//1
f 2//1 5//1 8//1
f 5//1 6//1 8//1
f 1//2 4//2 14//2
f 18//3 6//3 5//3
f 4//4 3//4 16//4
f 22//5 8//5 7//5
f 2//6 10//6 20//6
f 8//7 22//7 16//7
f 6//8 18//8 24//8
f 23//2 17//2 40//2
f 25//25 26//25 10//25
f 27//26 28//26 14//26
f 30//27 22//27 24//27
f 32//28 18//28 20//28
f 31//13 20//13 10//13
f 28//14 25//14 12//14
f 22//15 30//15 27//15
f 18//16 32//16 29//16
f 2//17 1//17 12//17
f 11//18 9//18 26//18
f 13//18 28//18 27//18
f 23//18 21//18 30//18
f 17//18 32//18 31//18
f 9//18 19//18 31//18
f 11//18 25//18 28//18
f 15//18 27//18 30//18
f 23//18 29//18 32//18
f 35//18 38//18 39//18
f 38//18 37//18 39//18
f 37//18 40//18 39//18
f 39//18 34//18 35//18
f 34//18 33//18 35//18
f 13//8 36//8 33//8
f 17//19 19//19 39//19
f 15//20 35//20 36//20
f 21//21 38//21 35//21
f 9//22 34//22 39//22
f 21//23 23//23 37//23
f 11//24 33//24 34//24
